<?xml version="1.0" encoding="iso-8859-1"?>
<!-- Generator: Adobe Illustrator 16.0.0, SVG Export Plug-In . SVG Version: 6.00 Build 0)  -->
<!DOCTYPE svg PUBLIC "-//W3C//DTD SVG 1.1//EN" "http://www.w3.org/Graphics/SVG/1.1/DTD/svg11.dtd">
<svg version="1.1" id="Capa_1" xmlns="http://www.w3.org/2000/svg" xmlns:xlink="http://www.w3.org/1999/xlink" x="0px" y="0px"
	 width="47.301px" height="47.301px" viewBox="0 0 47.301 47.301" style="enable-background:new 0 0 47.301 47.301;"
	 xml:space="preserve">
<g>
	<g>
		<path d="M40.429,21.948c6.817-7.027,4.138-14.586-5.985-16.88C24.32,2.772,10.584,6.61,3.765,13.638
			c-5.643,5.815-4.764,11.985,1.44,15.244c0.419,0.221,0.927,0.188,1.313-0.086l15.578-11.002l1.497,11.182
			c0.047,0.354,0.244,0.673,0.54,0.875c0.297,0.202,0.665,0.267,1.013,0.181C31.146,28.549,36.778,25.708,40.429,21.948z"/>
		<path d="M47.209,25.615c-0.016-0.114-0.957-3.97-1.816-7.486c-0.716,1.77-1.999,3.438-3.53,5.21
			c-5.061,5.854-13.696,8.14-16.783,8.795c-0.641,0.136-1.071,0.74-0.988,1.391l1.059,8.272c0.043,0.341,0.223,0.647,0.498,0.853
			c0.274,0.204,0.622,0.289,0.959,0.231c1.156-0.192,2.024-0.377,2.473-0.478C31.905,41.765,48.689,35.854,47.209,25.615z"/>
		<path d="M20.699,22.401c-0.03-0.227-0.177-0.422-0.387-0.514c-0.21-0.092-0.453-0.067-0.64,0.065
			c-0.128,0.888-0.668,1.554-1.316,1.554c-0.214,0-0.417-0.074-0.597-0.205L6.822,31.026c-0.172,0.711-0.665,1.294-1.174,1.46
			l-0.243-1.291L5.07,31.04c-0.698-0.321-1.351-0.679-1.956-1.067c-0.241-0.155-0.551-0.147-0.784,0.02
			c-0.233,0.166-0.34,0.458-0.272,0.735l1.236,5.024c0.612,1.986,1.73,3.493,3.167,4.63c0.438,0.348,1.051,0.363,1.508,0.043
			l3.75-2.644c-0.003-0.044-0.01-0.087-0.01-0.133c0-0.803,0.446-1.453,0.997-1.453c0.267,0,0.509,0.155,0.688,0.405l8.024-5.655
			c-0.253-0.357-0.412-0.855-0.412-1.409c0-0.582,0.174-1.104,0.45-1.463L20.699,22.401z M6.74,37.918
			c-0.007,0-0.035,0.003-0.071,0.008l-0.501-2.673c0.174-0.128,0.411-0.241,0.572-0.241c0.551,0,0.998,0.649,0.998,1.452
			C7.738,37.268,7.292,37.918,6.74,37.918z M10.366,33.495c-0.742,0-1.344-0.877-1.344-1.959s0.602-1.958,1.344-1.958
			c0.742,0,1.344,0.876,1.344,1.958C11.709,32.617,11.107,33.495,10.366,33.495z M14.36,34.262c-0.276,0-0.5-0.326-0.5-0.729
			c0-0.402,0.224-0.729,0.5-0.729c0.277,0,0.501,0.326,0.501,0.729C14.861,33.936,14.637,34.262,14.36,34.262z M15.36,29.268
			c-0.277,0-0.5-0.326-0.5-0.729c0-0.401,0.223-0.729,0.5-0.729c0.276,0,0.5,0.327,0.5,0.729
			C15.859,28.942,15.636,29.268,15.36,29.268z M18.355,29.993c-0.55,0-0.997-0.65-0.997-1.454c0-0.802,0.447-1.453,0.997-1.453
			c0.551,0,0.998,0.651,0.998,1.453C19.353,29.342,18.907,29.993,18.355,29.993z"/>
	</g>
</g>
<g>
</g>
<g>
</g>
<g>
</g>
<g>
</g>
<g>
</g>
<g>
</g>
<g>
</g>
<g>
</g>
<g>
</g>
<g>
</g>
<g>
</g>
<g>
</g>
<g>
</g>
<g>
</g>
<g>
</g>
</svg>
