<?xml version="1.0" encoding="utf-8"?>
<!-- Generator: Adobe Illustrator 18.0.0, SVG Export Plug-In . SVG Version: 6.00 Build 0)  -->
<!DOCTYPE svg PUBLIC "-//W3C//DTD SVG 1.1//EN" "http://www.w3.org/Graphics/SVG/1.1/DTD/svg11.dtd">
<svg version="1.1" id="Capa_1" xmlns="http://www.w3.org/2000/svg" xmlns:xlink="http://www.w3.org/1999/xlink" x="0px" y="0px"
	 viewBox="0 0 144 144" enable-background="new 0 0 144 144" xml:space="preserve">
<g>
	<path fill="#010002" d="M2.1,60.2c0,20.9,9.1,39.6,23.6,52.4c3.1,2.7,6.4,5.2,10,7.4c10.6,6.4,23,10.1,36.3,10.1
		s25.7-3.7,36.3-10.1c3.6-2.2,6.9-4.6,10-7.4c14.5-12.8,23.6-31.5,23.6-52.4C141.9,60.2,2.1,60.2,2.1,60.2z"/>
	<path fill="#010002" d="M37.6,1.2c-6.6,4.9-9.1,11.5-5.9,19.3c1.8,4.3,11.1,14.8,7.1,19.1c-5.3,5.8,3.3,14.5,8.7,8.7
		c5.3-5.8,5.8-12.7,2.5-19.7c-1.6-3.4-10.4-13.7-6.2-16.8C50.1,7.1,43.9-3.6,37.6,1.2z"/>
	<path fill="#010002" d="M67.1,1.2c-6.6,4.9-9.1,11.5-5.9,19.3c1.8,4.3,11.1,14.8,7.1,19.1c-5.3,5.8,3.3,14.5,8.7,8.7
		c5.3-5.8,5.8-12.7,2.5-19.7c-1.6-3.4-10.4-13.7-6.2-16.8C79.5,7.1,73.4-3.6,67.1,1.2z"/>
	<path fill="#010002" d="M96.5,1.2c-6.6,4.9-9.1,11.5-5.9,19.3c1.8,4.3,11.1,14.8,7.1,19.1c-5.3,5.8,3.3,14.5,8.7,8.7
		c5.3-5.8,5.8-12.7,2.5-19.7c-1.6-3.4-10.4-13.7-6.2-16.8C109,7.1,102.9-3.6,96.5,1.2z"/>
</g>
</svg>
