<?xml version="1.0" encoding="utf-8"?>
<!-- Generator: Adobe Illustrator 18.0.0, SVG Export Plug-In . SVG Version: 6.00 Build 0)  -->
<!DOCTYPE svg PUBLIC "-//W3C//DTD SVG 1.1//EN" "http://www.w3.org/Graphics/SVG/1.1/DTD/svg11.dtd">
<svg version="1.1" id="Capa_1" xmlns="http://www.w3.org/2000/svg" xmlns:xlink="http://www.w3.org/1999/xlink" x="0px" y="0px"
	 viewBox="0 0 422.8 422.8" enable-background="new 0 0 422.8 422.8" xml:space="preserve">
<g>
	<g>
		<path d="M280.7,155.2c-20.1-27.6-54.6-46-93.8-46c0,0,0,0,0,0c-32.6,0-62.7,12.6-83.7,33.9L71,167.1
			c-15.2,7.1-26.2,20.6-28.8,36.5h-30C5.5,203.6,0,209,0,215.8c0,6.7,5.5,12.2,12.2,12.2h398.4c6.7,0,12.2-5.5,12.2-12.2
			c0-6.7-5.5-12.2-12.2-12.2h-19.9v0c-6-21.3-27.1-37-52.2-37c-5.6,0-11,2.8-16.1,4.2l-22.5,12.7L280.7,155.2z M79.7,203.6
			c3.1-4.8,8.9-8.1,15.8-8.1c6.8,0,12.7,3.3,15.8,8.1H79.7z M127.2,203.6c-3.6-13.1-16.3-22.8-31.6-22.8c-15.3,0-28,9.7-31.6,22.8
			h-6.7c3.8-15.6,19.6-27.3,38.4-27.3c18.8,0,34.5,11.7,38.4,27.3H127.2z M171.2,203.6c3.1-4.8,9-8.1,15.8-8.1
			c6.8,0,12.7,3.3,15.8,8.1H171.2z M218.6,203.6c-3.6-13.1-16.3-22.8-31.6-22.8c-15.3,0-28,9.7-31.6,22.8h-6.5
			c-0.3-1.7-0.7-3.4-1.1-5l0.7,0.2c3.6-16.2,19.8-27.9,38.6-27.9c21,0,38,14.6,39.1,32.8L218.6,203.6L218.6,203.6z M240.8,203.6
			c-1.1-26.3-24.8-47.4-53.8-47.4c-20.3,0-38.3,10.5-47.5,26.3c-1.7-2.2-3.6-4.3-5.7-6.3c11.4-16.4,31.5-26.5,53.3-26.5
			c33.9,0,61.6,24.1,62.5,54L240.8,203.6L240.8,203.6z M264.1,203.6c-0.9-38-35.1-68.7-77.2-68.7c-26.5,0-51.2,12.6-65.3,32.9
			c-4.9-2.5-10.1-4.2-15.8-5.2c18-24.1,48-38.7,81.1-38.7c51,0,92.9,35.1,97.1,79.7L264.1,203.6L264.1,203.6z M295.6,186
			c-0.1-0.4-0.2-0.7-0.3-1.1c0.3,0.1,0.6,0.2,0.9,0.3C296,185.4,295.8,185.7,295.6,186z M327.5,203.6c3-2,6.8-3.3,10.9-3.3
			c4.1,0,7.9,1.2,10.9,3.3H327.5z M368.3,203.6c-5.1-10.5-16.5-17.9-29.8-17.9s-24.7,7.4-29.8,17.9h-6.8c5.6-13,19.9-22.4,36.6-22.4
			c16.8,0,31,9.3,36.6,22.4H368.3z"/>
		<path d="M352.4,299.1c9.7-31.1,43.9-62.2,43.9-62.2H24c0,0,34.2,31.1,43.9,62.2c2.4,7.7,9.1,14.4,17.2,14.4h110.8h28.5h110.8
			C343.3,313.5,350,306.9,352.4,299.1z"/>
	</g>
</g>
</svg>
