<?xml version="1.0" encoding="utf-8"?>
<!-- Generator: Adobe Illustrator 18.0.0, SVG Export Plug-In . SVG Version: 6.00 Build 0)  -->
<!DOCTYPE svg PUBLIC "-//W3C//DTD SVG 1.1//EN" "http://www.w3.org/Graphics/SVG/1.1/DTD/svg11.dtd">
<svg version="1.1" id="Capa_1" xmlns="http://www.w3.org/2000/svg" xmlns:xlink="http://www.w3.org/1999/xlink" x="0px" y="0px"
	 viewBox="0 0 488.3 488.3" enable-background="new 0 0 488.3 488.3" xml:space="preserve">
<g>
	<g>
		<g>
			<path d="M153.9,151c0.8,0,1.5,0.4,2.3,0.5l-4.1-44.2l-16.9,3.1c-2.5,0.5-4.6,1.9-6,3.9c-1.4,2.1-1.9,4.6-1.5,7l5.5,29.7H153.9
				L153.9,151z"/>
			<path d="M179.6,173.8c1.7,14.5,8.9,27.2,19.3,36.2V73.7c-0.3,0-0.6-0.1-0.8-0.1c-0.3,0-0.6,0-0.9,0l-22.1,2.1
				c-2.5,0.2-4.8,1.4-6.4,3.3c-1.6,1.9-2.3,4.4-2.1,6.9l7,75C176.7,164.6,179,168.9,179.6,173.8z"/>
			<path d="M338.8,151l5.5-29.7c0.9-5.1-2.4-10-7.5-10.9l-16.9-3.1l-4.1,44.2c0.8-0.1,1.5-0.5,2.4-0.5H338.8L338.8,151z"/>
			<path d="M298.3,160.9l7-75c0.5-5.1-3.3-9.7-8.5-10.2l-22.1-2.1c-0.3,0-0.6,0-0.9,0c-0.3,0-0.5,0.1-0.8,0.1V210
				c10.4-9,17.6-21.6,19.4-36.1C293,168.9,295.3,164.6,298.3,160.9z"/>
			<path d="M256.5,220V56.3c0-5.2-4.2-9.4-9.4-9.4h-22.2c-5.2,0-9.4,4.2-9.4,9.4V220c6.4,2.5,13.3,3.8,20.5,3.8
				C243.2,223.8,250.1,222.5,256.5,220z"/>
			<path d="M348.1,167.6h-29.9c-4.7,0-8.8,3.6-9.3,8.3c-4.4,36.4-35.3,64.6-72.8,64.6s-68.4-28.2-72.8-64.6
				c-0.6-4.7-4.6-8.3-9.3-8.3H124c-2.7,0-5.2,1.1-7,3.1c-1.8,2-2.6,4.6-2.4,7.3L140,411.8c0.5,4.8,4.5,8.4,9.3,8.4h173.5
				c4.8,0,8.8-3.6,9.3-8.4l25.3-233.9c0.3-2.6-0.6-5.3-2.4-7.3C353.2,168.7,350.7,167.6,348.1,167.6z"/>
		</g>
	</g>
</g>
</svg>
