<?xml version="1.0" encoding="iso-8859-1"?>
<!-- Generator: Adobe Illustrator 16.0.0, SVG Export Plug-In . SVG Version: 6.00 Build 0)  -->
<!DOCTYPE svg PUBLIC "-//W3C//DTD SVG 1.1//EN" "http://www.w3.org/Graphics/SVG/1.1/DTD/svg11.dtd">
<svg version="1.1" id="Capa_1" xmlns="http://www.w3.org/2000/svg" xmlns:xlink="http://www.w3.org/1999/xlink" x="0px" y="0px"
	 width="488.286px" height="488.286px" viewBox="0 0 488.286 488.286" style="enable-background:new 0 0 488.286 488.286;"
	 xml:space="preserve">
<g>
	<g>
		<g>
			<path d="M252.41,57.321l77.877-21.785c4.543-1.31,9.552-0.339,13.352,2.534c3.766,2.862,6.027,7.42,6.027,12.158v50.315h33.104
				V50.228c0-15.052-7.159-29.453-19.139-38.517c-11.979-9.084-27.769-12.11-42.253-8.051L243.49,25.449
				c-8.81,2.471-13.95,11.603-11.479,20.396C234.484,54.669,243.697,59.811,252.41,57.321z"/>
			<path d="M39.283,217.016c0.822,0,1.533,0.355,2.327,0.451l-4.139-44.189l-16.876,3.133c-2.454,0.455-4.622,1.876-6.027,3.912
				c-1.404,2.056-1.939,4.59-1.488,7.017l5.512,29.676H39.283L39.283,217.016z"/>
			<path d="M65.031,239.854c1.744,14.528,8.937,27.186,19.33,36.158V139.739c-0.275-0.016-0.551-0.144-0.826-0.144
				c-0.291,0-0.563,0.016-0.854,0.032l-22.112,2.083c-2.475,0.228-4.77,1.437-6.354,3.345c-1.58,1.924-2.343,4.398-2.115,6.869
				l7.029,74.982C62.122,230.591,64.432,234.862,65.031,239.854z"/>
			<path d="M224.224,217.016l5.508-29.676c0.938-5.093-2.438-9.991-7.531-10.929l-16.872-3.133l-4.139,44.189
				c0.806-0.08,1.536-0.451,2.358-0.451H224.224L224.224,217.016z"/>
			<path d="M183.667,226.938l7.032-75.03c0.483-5.137-3.297-9.731-8.453-10.198l-22.129-2.083c-0.291-0.016-0.566-0.032-0.857-0.032
				c-0.271,0-0.547,0.127-0.822,0.144v136.305c10.409-8.987,17.618-21.625,19.362-36.143
				C178.382,234.893,180.692,230.625,183.667,226.938z"/>
			<path d="M141.884,286.03V122.332c0-5.173-4.203-9.376-9.375-9.376h-22.225c-5.173,0-9.371,4.203-9.371,9.376V286.03
				c6.382,2.458,13.299,3.816,20.491,3.816C128.597,289.847,135.519,288.505,141.884,286.03z"/>
			<path d="M233.436,233.567h-29.888c-4.749,0-8.761,3.552-9.308,8.258c-4.383,36.38-35.304,64.573-72.835,64.573
				c-37.531,0-68.448-28.19-72.815-64.573c-0.566-4.722-4.558-8.258-9.308-8.258H9.377c-2.65,0-5.188,1.129-6.965,3.117
				c-1.78,1.988-2.635,4.638-2.363,7.272l25.298,233.868c0.519,4.771,4.542,8.374,9.327,8.374h173.463
				c4.785,0,8.809-3.604,9.327-8.374l25.294-233.868c0.275-2.634-0.579-5.285-2.359-7.272
				C238.625,234.698,236.084,233.567,233.436,233.567z"/>
			<path d="M463.455,125.37h-194.46c-13.706,0-24.827,11.104-24.827,24.827c0,9.021,4.866,16.843,12.074,21.19l1.311,27.01
				l12.541,257.74c0.825,16.938,14.809,30.259,31.763,30.259h128.725c16.955,0,30.938-13.319,31.76-30.259l12.545-257.74
				l1.311-26.994c7.208-4.363,12.09-12.186,12.09-21.206C488.282,136.474,477.162,125.37,463.455,125.37z"/>
		</g>
	</g>
</g>
<g>
</g>
<g>
</g>
<g>
</g>
<g>
</g>
<g>
</g>
<g>
</g>
<g>
</g>
<g>
</g>
<g>
</g>
<g>
</g>
<g>
</g>
<g>
</g>
<g>
</g>
<g>
</g>
<g>
</g>
</svg>
