<?xml version="1.0" encoding="utf-8"?>
<!-- Generator: Adobe Illustrator 18.0.0, SVG Export Plug-In . SVG Version: 6.00 Build 0)  -->
<!DOCTYPE svg PUBLIC "-//W3C//DTD SVG 1.1//EN" "http://www.w3.org/Graphics/SVG/1.1/DTD/svg11.dtd">
<svg version="1.1" id="Layer_1" xmlns="http://www.w3.org/2000/svg" xmlns:xlink="http://www.w3.org/1999/xlink" x="0px" y="0px"
	 viewBox="0 0 144 144" enable-background="new 0 0 144 144" xml:space="preserve">
<g>
	<g>
		<path fill="#FFFFFF" d="M33.2,89c0-0.7-0.6-1.3-1.3-1.3c-0.7,0-1.3,0.6-1.3,1.3v8.7h-1.2V89c0-0.7-0.6-1.3-1.3-1.3
			s-1.3,0.6-1.3,1.3v8.7h-1.2V86.7h0.8l0.2,0.9c0.4-0.6,1-1,1.7-1c0.6,0,1.2,0.3,1.6,0.8c0.4-0.5,1.1-0.8,1.8-0.8
			c1.4,0,2.5,1.1,2.5,2.5v8.7h-1.2V89z"/>
		<path fill="#FFFFFF" d="M41.1,94v1.5c0,1.4-1.1,2.5-2.5,2.5c-1.4,0-2.5-1.1-2.5-2.5V89c0-1.4,1.1-2.5,2.5-2.5
			c1.4,0,2.5,1.1,2.5,2.5v3.4h-3.7v3c0,0.7,0.6,1.3,1.3,1.3c0.7,0,1.3-0.6,1.3-1.3v-1.3L41.1,94z M37.4,91.2h2.5V89
			c0-0.7-0.6-1.3-1.3-1.3c-0.7,0-1.3,0.6-1.3,1.3V91.2z"/>
		<path fill="#FFFFFF" d="M47.4,96.2c0,0.2,0.2,0.4,0.4,0.4v1.2c-0.5,0-0.9-0.2-1.2-0.5c-0.4,0.4-1,0.6-1.7,0.6
			c-1.4,0-2.5-1.1-2.5-2.5v-1.2c0-1.1,1-1.7,1-1.7l1.7-1c0,0,1-0.6,1-1.5v-1.1c0-0.6-0.5-1.1-1.1-1.1c-0.6,0-1.1,0.5-1.1,1.1v1.3
			l-1.2,0.1v-1.5c0-1.3,1-2.3,2.3-2.3c1.3,0,2.3,1,2.3,2.3V96.2z M43.6,95.4c0,0.7,0.6,1.3,1.3,1.3s1.3-0.6,1.3-1.3v-3.2
			c-0.2,0.2-0.4,0.3-0.4,0.3l-1.7,1c0,0-0.4,0.2-0.4,0.7V95.4z"/>
		<path fill="#FFFFFF" d="M52.7,94.5c0-0.6-0.4-1-0.4-1l-2.5-2c0,0-0.8-0.7-0.8-1.9v-0.7c0-1.3,1.1-2.4,2.4-2.4s2.4,1.1,2.4,2.4v1
			l-1.2,0.1v-1.2c0-0.7-0.5-1.2-1.2-1.2s-1.2,0.5-1.2,1.2v0.7c0,0.6,0.4,1,0.4,1l2.5,2c0,0,0.8,0.7,0.8,1.9v1c0,1.4-1.1,2.5-2.5,2.5
			S49,96.8,49,95.4v-1.1l1.2-0.1v1.2c0,0.7,0.6,1.3,1.3,1.3s1.3-0.6,1.3-1.3V94.5z"/>
		<path fill="#FFFFFF" d="M60.4,86.7v11.1h-0.8l-0.2-0.9c-0.4,0.6-1,1-1.7,1c-1.2,0-2.2-1.1-2.2-2.5v-8.7h1.2v8.7
			c0,0.7,0.6,1.3,1.3,1.3s1.3-0.6,1.3-1.3v-8.7H60.4z"/>
		<path fill="#FFFFFF" d="M65.8,87.7h-0.8c-0.8,0-1.4,0.6-1.4,1.4v8.6h-1.2V86.7h0.8l0.2,0.9c0.4-0.6,1.2-1,2.4-1V87.7z"/>
		<path fill="#FFFFFF" d="M67,83.8h1.2v1.6H67V83.8z M68.1,86.7H67v11.1h1.2V86.7z"/>
		<path fill="#FFFFFF" d="M70.1,97.8V86.7h0.8l0.2,0.9c0.4-0.6,1-1,1.7-1c1.2,0,2.2,1.1,2.2,2.5v8.7h-1.2V89c0-0.7-0.6-1.3-1.3-1.3
			s-1.3,0.6-1.3,1.3v8.7H70.1z"/>
		<path fill="#FFFFFF" d="M76.7,97.9c0-0.8,0.4-1.5,1-2c-0.2-0.3-0.3-0.7-0.3-1.1c0-0.4,0.1-0.8,0.3-1.1c-0.6-0.5-1-1.2-1-2V89
			c0-1.4,1-2.5,2.2-2.5c0.7,0,1.3,0.4,1.7,1l0.2-0.9h0.8v5.1c0,1.4-1.1,2.5-2.5,2.5c-0.3,0-0.6,0.3-0.6,0.6s0.3,0.6,0.6,0.6
			c1.4,0,2.5,1.1,2.5,2.5v1c0,1.4-1.1,2.5-2.5,2.5s-2.5-1.1-2.5-2.5V97.9z M80.4,89c0-0.7-0.6-1.3-1.3-1.3s-1.3,0.6-1.3,1.3v2.8
			c0,0.7,0.6,1.3,1.3,1.3s1.3-0.6,1.3-1.3V89z M77.9,99c0,0.7,0.6,1.3,1.3,1.3s1.3-0.6,1.3-1.3v-1c0-0.7-0.6-1.3-1.3-1.3
			s-1.3,0.6-1.3,1.3V99z"/>
		<path fill="#FFFFFF" d="M91.1,94.1v1.3c0,1.4-1.1,2.5-2.5,2.5c-1.4,0-2.5-1.1-2.5-2.5V89c0-1.4,1.1-2.5,2.5-2.5
			c1.4,0,2.5,1.1,2.5,2.5v1.3l-1.2,0.1V89c0-0.7-0.6-1.3-1.3-1.3c-0.7,0-1.3,0.6-1.3,1.3v6.4c0,0.7,0.6,1.3,1.3,1.3
			c0.7,0,1.3-0.6,1.3-1.3v-1.3H91.1z"/>
		<path fill="#FFFFFF" d="M97.7,86.7v11.1h-0.8l-0.2-0.9c-0.4,0.6-1,1-1.7,1c-1.2,0-2.2-1.1-2.2-2.5v-8.7h1.2v8.7
			c0,0.7,0.6,1.3,1.3,1.3s1.3-0.6,1.3-1.3v-8.7H97.7z"/>
		<path fill="#FFFFFF" d="M99.6,86.7h0.8l0.2,0.9c0.4-0.6,1-1,1.7-1c1.2,0,2.2,1.1,2.2,2.5v6.4c0,1.4-1,2.5-2.2,2.5
			c-0.6,0-1.2-0.3-1.6-0.8v4.2l-1.2,0.1V86.7z M100.8,95.4c0,0.7,0.6,1.3,1.3,1.3s1.3-0.6,1.3-1.3V89c0-0.7-0.6-1.3-1.3-1.3
			s-1.3,0.6-1.3,1.3V95.4z"/>
	</g>
	<path fill="#FFFFFF" d="M101.5,43.4c-5.3,1-9.9,2.5-12.6,3.8c-0.6-2.6-2.6-4.9-5.9-6.6c-3.7-2-8.7-3.2-14-3.2
		c-6.5,0-10.5,1.7-12.8,3.2c-2.9,1.9-4.6,4.5-4.6,7c0,2.5,1.4,4.8,3.9,6.4c2.6,1.7,6.3,2.6,10.7,2.6c7.4,0,11.9-1.1,14.2-3.5
		c1.1-1.2,1.7-2.7,1.7-4.4c-0.1-2-1.9-3.6-5.5-4.5c-2.5-0.7-5.7-1-8.7-1c-1.6,0-3.8,0.2-5.7,0.7c-2.9,0.9-3.6,2.4-3.7,3.6
		c0,1,0.6,2,1.4,2.7c1.2,1.1,3.2,1.6,6.2,1.6c2,0,3.7-0.2,3.8-0.2c1-0.1,1.7-1,1.6-2c-0.1-1-1-1.7-2-1.6c0,0-1.7,0.2-3.6,0.2
		c-2,0-3.3-0.1-3.3-0.5c0-0.4,1.4-0.7,2.9-0.9c1.9-0.2,4.3-0.2,6.6,0c6.9,0.9,6.6,2.8,5.6,3.6c-1.1,1-3.7,2.6-11.4,2.6
		c-7.2,0-10.9-2.8-10.9-5.5c0-2.3,4-6.6,13.8-6.6c9.9,0,16.5,4.1,16.5,7.9c0,2.4-0.9,4.3-2.9,5.9c-1.5,1.2-3.6,3.9-14.1,3.9l-0.7,0
		c-0.1,0-0.1,0-0.2,0H41.4c-0.6,0-1.1,0.5-1.1,1.1v17.1c0,0.6,0.5,1.1,1.1,1.1h7.7V66.4c0-0.9,0.7-1.6,1.6-1.6
		c0.9,0,1.6,0.7,1.6,1.6V78h4.1v-9.1c0-0.5,0.4-1,1-1c0.5,0,1,0.4,1,1V78h3.3v-9.1c0-0.5,0.4-1,1-1c0.5,0,1,0.4,1,1V78h3.4v-9.1
		c0-0.5,0.4-1,1-1c0.5,0,1,0.4,1,1V78h0.4c1.2,0,2.3-0.1,3.3-0.2V66.4c0-0.9,0.7-1.6,1.6-1.6c0.9,0,1.6,0.7,1.6,1.6v10.8
		c1.2-0.3,2.4-0.7,3.4-1.2v-7.6c0-0.5,0.4-1,1-1c0.5,0,1,0.4,1,1V75c1.3-0.7,2.4-1.6,3.3-2.4v-7.3c0-0.5,0.4-1,1-1s1,0.4,1,1v5.2
		c1.7-2.2,2.5-4.3,2.5-5.5c0-2.1,0-10.2,0-14c3,0.4,8,0,13.6-1c8.7-1.7,15.5-4.5,15.2-6.3C117.6,41.9,110.3,41.7,101.5,43.4z"/>
</g>
</svg>
