<?xml version="1.0" encoding="iso-8859-1"?>
<!-- Generator: Adobe Illustrator 16.0.0, SVG Export Plug-In . SVG Version: 6.00 Build 0)  -->
<!DOCTYPE svg PUBLIC "-//W3C//DTD SVG 1.1//EN" "http://www.w3.org/Graphics/SVG/1.1/DTD/svg11.dtd">
<svg version="1.1" id="Capa_1" xmlns="http://www.w3.org/2000/svg" xmlns:xlink="http://www.w3.org/1999/xlink" x="0px" y="0px"
	 width="576.689px" height="576.689px" viewBox="0 0 576.689 576.689" style="enable-background:new 0 0 576.689 576.689;"
	 xml:space="preserve">
<g>
	<g id="Layer_1_48_">
		<g>
			<path d="M548.314,116.739L43.413,49.164c-17.85-1.275-33.15,10.2-35.7,28.05c-2.55,17.85,10.2,33.15,26.775,35.7l167.025,21.675
				l-10.2,21.675c10.2,2.55,20.4,6.375,30.6,10.2c10.2,5.1,19.125,10.2,28.05,16.575l19.125-40.8l0,0l19.125,40.8
				c8.926-6.375,17.851-11.476,26.775-16.575c10.2-5.1,20.4-7.65,30.6-10.2l8.926-2.55c10.199-2.55,21.675-3.825,31.875-3.825
				c25.5,0,51,6.375,73.949,17.851l80.325,10.199c1.275,0,2.55,0,3.825,0c15.3,0,29.325-11.475,31.875-28.05
				C578.914,134.588,566.164,119.289,548.314,116.739z"/>
			<path d="M121.188,380.664c-16.575-7.65-34.425-12.75-51-16.575c-16.575-3.825-31.875-8.925-45.9-15.3l-17.85,48.449
				c-17.85,45.9,2.55,96.9,47.175,118.575l6.375,2.55c44.625,21.676,98.175,3.825,122.4-38.25l25.5-44.625
				c-14.025-6.375-28.05-15.3-42.075-25.5C151.788,399.789,137.763,388.313,121.188,380.664z"/>
			<path d="M205.338,202.164c-17.85-8.925-36.975-12.75-54.825-12.75c-48.45,0-95.625,28.05-117.3,73.95
				c-30.6,65.024,39.525,51,104.55,81.6c44.625,20.399,73.95,57.375,98.175,57.375c1.275,0,2.55,0,3.825,0
				c-2.55-3.825-3.825-7.65-6.375-11.476c-25.5-53.55-19.125-113.475,10.2-160.649C233.388,218.739,220.638,209.813,205.338,202.164
				z"/>
			<path d="M512.614,348.789c-14.025,7.649-30.6,11.475-45.9,15.3c-16.574,3.825-34.425,8.925-51,16.575
				c-16.574,7.649-30.6,17.85-44.625,28.05c-14.024,10.2-26.774,19.125-42.074,25.5l25.5,44.625
				c24.225,43.35,77.774,59.925,122.399,38.25l6.375-2.55c44.625-21.676,65.025-72.676,48.45-118.575L512.614,348.789z"/>
			<path d="M503.689,264.638c-21.675-47.175-68.851-73.95-117.3-73.95c-19.125,0-36.976,3.825-54.825,12.75
				c-65.026,30.601-93.076,107.101-62.476,172.125c10.2,20.4,19.125,28.05,30.601,28.05c24.225,0,54.825-35.699,98.175-56.1
				C462.889,315.638,534.289,329.664,503.689,264.638z"/>
		</g>
	</g>
</g>
<g>
</g>
<g>
</g>
<g>
</g>
<g>
</g>
<g>
</g>
<g>
</g>
<g>
</g>
<g>
</g>
<g>
</g>
<g>
</g>
<g>
</g>
<g>
</g>
<g>
</g>
<g>
</g>
<g>
</g>
</svg>
