<?xml version="1.0" encoding="iso-8859-1"?>
<!-- Generator: Adobe Illustrator 16.0.0, SVG Export Plug-In . SVG Version: 6.00 Build 0)  -->
<!DOCTYPE svg PUBLIC "-//W3C//DTD SVG 1.1//EN" "http://www.w3.org/Graphics/SVG/1.1/DTD/svg11.dtd">
<svg version="1.1" id="Capa_1" xmlns="http://www.w3.org/2000/svg" xmlns:xlink="http://www.w3.org/1999/xlink" x="0px" y="0px"
	 width="27.083px" height="27.083px" viewBox="0 0 27.083 27.083" style="enable-background:new 0 0 27.083 27.083;"
	 xml:space="preserve">
<g>
	<g>
		<circle style="fill:#333333;" cx="5.208" cy="5.747" r="4.167"/>
		<circle style="fill:#333333;" cx="20.833" cy="4.705" r="1.042"/>
		<path style="fill:#333333;" d="M14.956,16.654l-3.538-5.208c-0.505-0.508-2.939-0.491-3.318-0.491L5.19,22.414L2.281,10.955
			c-0.249,0-1.387-0.004-2.281,0.135v14.413h11.01v-8.699l2.766,3.393c0.326,0.327,0.752,0.488,1.182,0.488
			c0.428,0,0.854-0.161,1.18-0.488l3.596-4.937c0.652-0.653,4.226-1.115,4.226-2.222h-6.25L14.956,16.654z"/>
		<path style="fill:#333333;" d="M26.562,9.914h-0.626c-0.482-2.377-2.583-4.167-5.103-4.167c-2.521,0-4.621,1.789-5.103,4.167
			h-0.627c-0.287,0-0.521,0.233-0.521,0.521c0,0.287,0,0.754,0,1.042c0,0.288,0.233,0.521,0.521,0.521h11.458
			c0.287,0,0.521-0.233,0.521-0.521c0-0.287,0-0.754,0-1.042C27.083,10.147,26.849,9.914,26.562,9.914z"/>
	</g>
</g>
<g>
</g>
<g>
</g>
<g>
</g>
<g>
</g>
<g>
</g>
<g>
</g>
<g>
</g>
<g>
</g>
<g>
</g>
<g>
</g>
<g>
</g>
<g>
</g>
<g>
</g>
<g>
</g>
<g>
</g>
</svg>
